#!OML:ASF E:\acrobat2\Project_11_07_03\Capture day 1\Session 1\Acrobat.ASF
:FULLY-SPECIFIED
:DEGREES
66
root 8.49904 18.2708 -16.0824 6.74762 -10.7748 -3.84412
lowerback 1.80407 -0.419158 -5.13944
upperback 3.3615 -0.525099 -2.74828
thorax 2.47334 -0.353913 0.0464265
lowerneck 4.95779 -9.49965 -6.388
upperneck -3.13238 -12.829 8.92793
head -0.797597 -6.54819 4.20729
rclavicle 5.56597e-015 2.54444e-014
rhumerus -44.6691 4.19578 -82.6957
rradius 40.8291
rwrist -0.101431
rhand 3.87441 -42.0756
rfingers 7.12502
rthumb 29.2958 -69.7881
lclavicle 5.56597e-015 2.54444e-014
lhumerus -23.6767 -2.94857 73.6414
lradius 23.2636
lwrist 10.3969
lhand -11.469 -12.4597
lfingers 7.12502
lthumb 14.5686 17.0087
rfemur -16.406 -6.31721 20.2964
rtibia 13.3378
rfoot -15.2952 -18.5425
rtoes 2.66276
lfemur 1.08868 -4.68032 -11.4141
ltibia 1.57028
lfoot -19.5544 10.59
ltoes 30.1666
67
root 8.50246 18.2753 -16.1284 6.72867 -10.8471 -4.01556
lowerback 1.82196 -0.409419 -5.09147
upperback 3.3515 -0.514133 -2.73829
thorax 2.45184 -0.346927 0.0303923
lowerneck 4.90682 -9.45426 -6.40003
upperneck -3.11169 -12.7673 8.96186
head -0.783913 -6.51706 4.21739
rclavicle 3.10104e-014 3.02153e-014
rhumerus -44.5842 4.28934 -82.6292
rradius 41.0907
rwrist -0.281155
rhand 3.73526 -41.9809
rfingers 7.12502
rthumb 29.1629 -69.7165
lclavicle 3.10104e-014 3.02153e-014
lhumerus -23.8284 -2.03291 73.2889
lradius 22.5074
lwrist 10.4382
lhand -11.9391 -12.1342
lfingers 7.12502
lthumb 14.1157 17.3663
rfemur -16.3659 -6.51172 20.3259
rtibia 14.4202
rfoot -15.4877 -17.7988
rtoes 2.91706
lfemur 1.01574 -4.76718 -11.1915
ltibia 1.53837
lfoot -19.601 10.7444
ltoes 30.4266
68
root 8.50506 18.2782 -16.1728 6.69877 -10.9152 -4.16912
lowerback 1.83567 -0.400186 -5.04667
upperback 3.34008 -0.503553 -2.72968
thorax 2.43129 -0.340198 0.0146705
lowerneck 4.85957 -9.42256 -6.39042
upperneck -3.08666 -12.7235 8.96787
head -0.77134 -6.49444 4.21401
rclavicle -1.98785e-015 9.54166e-015
rhumerus -44.494 4.34725 -82.549
rradius 41.3369
rwrist -0.460582
rhand 3.50689 -41.9632
rfingers 7.12502
rthumb 28.9448 -69.7364
lclavicle -1.98785e-015 9.54166e-015
lhumerus -23.9931 -1.17667 72.9418
lradius 21.7645
lwrist 10.4243
lhand -12.3291 -11.8597
lfingers 7.12502
lthumb 13.7399 17.6667
rfemur -16.3036 -6.68207 20.3212
rtibia 15.5325
rfoot -15.6615 -17.0268
rtoes 3.17698
lfemur 0.957518 -4.81902 -10.9813
ltibia 1.50946
lfoot -19.6204 10.8606
ltoes 30.6391
69
root 8.50689 18.2797 -16.2153 6.65522 -10.991 -4.2964
lowerback 1.84255 -0.387419 -5.0116
upperback 3.32776 -0.487705 -2.7285
thorax 2.41356 -0.331033 -0.00333764
lowerneck 4.80958 -9.39524 -6.37299
upperneck -3.04152 -12.686 8.96804
head -0.75211 -6.47478 4.20612
rclavicle 2.18663e-014 -1.74931e-014
rhumerus -44.4059 4.36479 -82.4618
rradius 41.5661
rwrist -0.633886
rhand 3.19096 -41.9904
rfingers 7.12502
rthumb 28.643 -69.815
lclavicle 2.18663e-014 -1.74931e-014
lhumerus -24.1728 -0.356654 72.5893
lradius 21.0476
lwrist 10.3102
lhand -12.6138 -11.6104
lfingers 7.12502
lthumb 13.4654 17.9344
rfemur -16.2127 -6.83583 20.2749
rtibia 16.6576
rfoot -15.8069 -16.2476
rtoes 3.28971
lfemur 0.923113 -4.84773 -10.7992
ltibia 1.47384
lfoot -19.6321 10.948
ltoes 30.8714
70
root 8.50792 18.2802 -16.256 6.60143 -11.0793 -4.39188
lowerback 1.83808 -0.368644 -4.99079
upperback 3.31448 -0.462944 -2.73846
thorax 2.40103 -0.317717 -0.024953
lowerneck 4.75375 -9.3801 -6.35337
upperneck -2.97337 -12.6655 8.9776
head -0.722388 -6.46361 4.19941
rclavicle -2.90226e-014 -2.38542e-014
rhumerus -44.3145 4.33002 -82.3692
rradius 41.7664
rwrist -0.785865
rhand 2.79944 -42.0141
rfingers 7.12502
rthumb 28.2689 -69.9012
lclavicle -2.90226e-014 -2.38542e-014
lhumerus -24.3685 0.436647 72.2273
lradius 20.3806
lwrist 10.069
lhand -12.7654 -11.3416
lfingers 7.12502
lthumb 13.3194 18.2127
rfemur -16.093 -6.96083 20.1818
rtibia 17.7737
rfoot -15.9303 -15.4913
rtoes 3.17355
lfemur 0.909315 -4.85938 -10.6531
ltibia 1.42652
lfoot -19.6427 11.0167
ltoes 31.1587
71
root 8.50816 18.2801 -16.2949 6.54119 -11.1786 -4.4566
lowerback 1.81588 -0.344283 -4.98453
upperback 3.30124 -0.429361 -2.75684
thorax 2.39837 -0.300423 -0.0472797
lowerneck 4.67303 -9.36895 -6.3429
upperneck -2.85601 -12.652 9.00144
head -0.670042 -6.45547 4.19529
rclavicle -2.18663e-014 -4.13472e-014
rhumerus -44.2109 4.24408 -82.2671
rradius 41.9235
rwrist -0.908535
rhand 2.33922 -41.997
rfingers 7.12502
rthumb 27.829 -69.9562
lclavicle -2.18663e-014 -4.13472e-014
lhumerus -24.5715 1.21059 71.8595
lradius 19.7533
lwrist 9.67647
lhand -12.763 -11.0696
lfingers 7.12502
lthumb 13.3216 18.4846
rfemur -15.9409 -7.04702 20.0434
rtibia 18.8555
rfoot -16.0521 -14.776
rtoes 2.81205
lfemur 0.913484 -4.869 -10.5439
ltibia 1.36232
lfoot -19.6612 11.0795
ltoes 31.5085
72
root 8.50764 18.2795 -16.3325 6.47604 -11.2888 -4.48335
lowerback 1.77846 -0.31622 -5.00553
upperback 3.28356 -0.389928 -2.78102
thorax 2.39979 -0.280809 -0.0604593
lowerneck 4.55913 -9.35324 -6.34987
upperneck -2.68005 -12.635 9.02976
head -0.591643 -6.44441 4.19122
rclavicle -6.36111e-015 3.49861e-014
rhumerus -44.1011 4.12421 -82.1533
rradius 42.0395
rwrist -1.00445
rhand 1.82914 -41.9374
rfingers 7.12502
rthumb 27.3412 -69.9745
lclavicle -6.36111e-015 3.49861e-014
lhumerus -24.7806 1.94669 71.4962
lradius 19.1491
lwrist 9.15398
lhand -12.6213 -10.8133
lfingers 7.12502
lthumb 13.4582 18.7319
rfemur -15.7631 -7.09006 19.8536
rtibia 19.9006
rfoot -16.189 -14.1096
rtoes 2.2764
lfemur 0.929531 -4.89399 -10.4807
ltibia 1.27887
lfoot -19.7023 11.1424
ltoes 31.9597
73
root 8.50635 18.2788 -16.3693 6.4135 -11.4001 -4.47394
lowerback 1.72505 -0.291157 -5.05052
upperback 3.25696 -0.353693 -2.8097
thorax 2.40135 -0.263186 -0.0649639
lowerneck 4.43865 -9.33198 -6.38283
upperneck -2.47504 -12.6132 9.06635
head -0.500817 -6.43048 4.19327
rclavicle -7.15625e-015 -1.59028e-014
rhumerus -43.9905 3.98977 -82.0326
rradius 42.1299
rwrist -1.09178
rhand 1.29282 -41.8404
rfingers 7.12502
rthumb 26.8281 -69.9573
lclavicle -7.15625e-015 -1.59028e-014
lhumerus -25.0105 2.60427 71.15
lradius 18.5898
lwrist 8.57142
lhand -12.3553 -10.5658
lfingers 7.12502
lthumb 13.7146 18.9623
rfemur -15.5723 -7.09417 19.6176
rtibia 20.9129
rfoot -16.3476 -13.498
rtoes 1.76966
lfemur 0.942931 -4.93043 -10.4575
ltibia 1.17793
lfoot -19.7558 11.2002
ltoes 32.4942
74
root 8.50449 18.2778 -16.4053 6.35623 -11.497 -4.43784
lowerback 1.65311 -0.271513 -5.10101
upperback 3.22403 -0.323446 -2.84364
thorax 2.40701 -0.248586 -0.0719093
lowerneck 4.33794 -9.3095 -6.43371
upperneck -2.27894 -12.5912 9.11752
head -0.414242 -6.41693 4.20549
rclavicle -1.39149e-014 4.45278e-014
rhumerus -43.8735 3.82792 -81.9048
rradius 42.198
rwrist -1.18453
rhand 0.754157 -41.7292
rfingers 7.12502
rthumb 26.3125 -69.9242
lclavicle -1.39149e-014 4.45278e-014
lhumerus -25.2634 3.13553 70.8357
lradius 18.1021
lwrist 7.99037
lhand -11.9751 -10.3399
lfingers 7.12502
lthumb 14.081 19.163
rfemur -15.3613 -7.08556 19.3476
rtibia 21.878
rfoot -16.5161 -12.9331
rtoes 1.43597
lfemur 0.95077 -4.96589 -10.4629
ltibia 1.06175
lfoot -19.797 11.2486
ltoes 33.0297
75
root 8.50209 18.2763 -16.4402 6.30013 -11.5785 -4.37217
lowerback 1.56616 -0.251378 -5.15521
upperback 3.18534 -0.291459 -2.887
thorax 2.41509 -0.233046 -0.0864866
lowerneck 4.28066 -9.28246 -6.50258
upperneck -2.10111 -12.565 9.19429
head -0.338646 -6.40253 4.23369
rclavicle 6.16232e-014 -4.77083e-014
rhumerus -43.7555 3.60703 -81.762
rradius 42.2436
rwrist -1.28873
rhand 0.240439 -41.62
rfingers 7.12502
rthumb 25.8207 -69.8875
lclavicle 6.16232e-014 -4.77083e-014
lhumerus -25.5384 3.49466 70.5698
lradius 17.707
lwrist 7.44714
lhand -11.501 -10.1244
lfingers 7.12502
lthumb 14.5379 19.3462
rfemur -15.1243 -7.08079 19.0415
rtibia 22.7904
rfoot -16.6838 -12.4174
rtoes 1.21113
lfemur 0.956002 -4.98257 -10.5003
ltibia 0.936728
lfoot -19.8016 11.2992
ltoes 33.4221
